<svg width="199" height="135" viewBox="0 0 199 135" fill="none" xmlns="http://www.w3.org/2000/svg">
<path d="M0 125.447C0 130.723 4.27706 135 9.55307 135H166.676C171.952 135 176.229 130.723 176.229 125.447V32.933C176.028 28.9106 172.207 27.905 170.698 27.905H169.944H7.03911H6.53631C2.01117 27.905 0.418994 30.6704 0 32.1788V125.447Z" fill="url(#paint0_linear_86_46)"/>
<path d="M49.2089 2.78802C46.9734 0.983944 44.1874 0 41.3148 0H9.55307C4.27706 0 0 4.27706 0 9.55307V32.1788C0.418994 30.6704 2.01117 27.905 6.53631 27.905H7.03911C7.03911 25.7263 7.5419 21.3687 13.0726 21.3687H164.916C168.184 21.3687 169.944 23.4804 169.944 27.905H170.698C172.207 27.905 176.028 28.9106 176.229 32.933V21.1173C176.229 15.8413 171.952 11.5642 166.676 11.5642H66.1214C62.2146 11.5642 58.4256 10.2261 55.3854 7.77254L49.2089 2.78802Z" fill="#A3C5EE"/>
<path d="M13.0726 21.3687C7.5419 21.3687 7.03911 25.7263 7.03911 27.905H169.944C169.944 23.4804 168.184 21.3687 164.916 21.3687H13.0726Z" fill="white"/>
<defs>
<linearGradient id="paint0_linear_86_46" x1="88.1145" y1="0" x2="88.1145" y2="135" gradientUnits="userSpaceOnUse">
<stop stop-color="#A3C5EE"/>
<stop offset="1" stop-color="#669FE2"/>
</linearGradient>
</defs>
</svg>
