<svg width="199" height="135" viewBox="0 0 199 135" fill="none" xmlns="http://www.w3.org/2000/svg">
<path fill-rule="evenodd" clip-rule="evenodd" d="M0 9.55307C0 4.27706 4.27706 0 9.55307 0H41.3148C44.1875 0 46.9734 0.983944 49.2089 2.78802L55.3854 7.77254C58.4256 10.2261 62.2146 11.5642 66.1214 11.5642H166.676C171.952 11.5642 176.229 15.8413 176.229 21.1173V32.933H170V26.3584C170 23.597 167.761 21.3584 165 21.3584H12C9.23858 21.3584 7 23.597 7 26.3584V93.5632L8.6841 86L0 125V32.1788V9.55307Z" fill="#A3C5EE"/>
<path d="M8.6841 86L18.932 39.9768C19.8485 35.8608 23.5 32.933 27.7169 32.933H170V26.3584C170 23.597 167.761 21.3584 165 21.3584H12C9.23858 21.3584 7 23.597 7 26.3584V93.5632L8.6841 86Z" fill="white"/>
<path d="M0 125.447C0 130.723 4.27706 135 9.55307 135H168.214C172.898 135 176.954 131.749 177.974 127.177L196.555 43.8927C197.81 38.2701 193.532 32.933 187.771 32.933H176.229H170H27.7169C23.5 32.933 19.8485 35.8608 18.932 39.9768L8.6841 86L7 93.5632L0 125V125.447Z" fill="url(#paint0_linear_86_47)"/>
<defs>
<linearGradient id="paint0_linear_86_47" x1="99.5002" y1="0" x2="99.5002" y2="135" gradientUnits="userSpaceOnUse">
<stop stop-color="#A3C5EE"/>
<stop offset="1" stop-color="#669FE2"/>
</linearGradient>
</defs>
</svg>
