<svg width="1440" height="142" viewBox="0 0 1440 142" fill="none" xmlns="http://www.w3.org/2000/svg">
<g opacity="0.6">
<line x1="-145" y1="16" x2="668" y2="16" stroke="black" stroke-width="30"/>
<path d="M-145 89L283.5 89" stroke="black" stroke-width="68"/>
<line x1="691" y1="15.75" x2="1662" y2="15.75" stroke="#669FE2" stroke-width="30"/>
<path d="M808 88.75H1662" stroke="#669FE2" stroke-width="68"/>
<path d="M337.953 79.2133C337.139 77.8979 335.98 76.8956 334.476 76.2065C332.973 75.4548 331.156 75.079 329.027 75.079C325.017 75.079 321.917 76.3945 319.724 79.0254C317.532 81.5937 316.436 85.133 316.436 89.6432C316.436 94.8425 317.657 98.7263 320.1 101.295C322.543 103.863 326.302 105.147 331.376 105.147C336.199 105.147 340.083 103.205 343.027 99.3214H326.396V84.5692H360.316V105.429C357.435 110.378 353.457 114.637 348.383 118.208C343.309 121.716 336.888 123.47 329.12 123.47C322.23 123.47 316.216 122.06 311.08 119.241C306.006 116.36 302.091 112.351 299.334 107.214C296.641 102.078 295.294 96.2206 295.294 89.6432C295.294 83.0658 296.641 77.2088 299.334 72.0722C302.091 66.9355 306.006 62.9578 311.08 60.1389C316.154 57.2574 322.105 55.8166 328.933 55.8166C337.64 55.8166 344.718 57.9151 350.168 62.1121C355.681 66.3091 358.938 72.0095 359.94 79.2133H337.953ZM410.488 112.946H388.313L385.024 123H363.131L387.467 56.4743H411.521L435.764 123H413.777L410.488 112.946ZM405.414 97.2542L399.4 78.7435L393.387 97.2542H405.414ZM486.921 56.4743V99.4153C486.921 107.371 484.822 113.416 480.625 117.55C476.491 121.622 470.665 123.658 463.148 123.658C455.067 123.658 448.647 121.434 443.886 116.986C439.125 112.539 436.745 106.055 436.745 97.5361H457.322C457.322 100.23 457.761 102.14 458.638 103.268C459.515 104.333 460.705 104.865 462.208 104.865C463.461 104.865 464.432 104.458 465.121 103.644C465.81 102.829 466.155 101.42 466.155 99.4153V56.4743H486.921ZM516.786 56.4743V123H495.926V56.4743H516.786ZM568.867 112.946H546.691L543.403 123H521.509L545.846 56.4743H569.9L594.143 123H572.155L568.867 112.946ZM563.793 97.2542L557.779 78.7435L551.765 97.2542H563.793ZM662.683 123H641.823L619.742 89.5492V123H598.882V56.4743H619.742L641.823 90.4889V56.4743H662.683V123Z" fill="black"/>
<path d="M682.443 123.752C678.809 123.752 675.897 122.781 673.704 120.839C671.512 118.897 670.415 116.454 670.415 113.51C670.415 110.503 671.512 108.029 673.704 106.087C675.897 104.082 678.809 103.08 682.443 103.08C686.013 103.08 688.895 104.082 691.087 106.087C693.28 108.029 694.376 110.503 694.376 113.51C694.376 116.454 693.28 118.897 691.087 120.839C688.895 122.781 686.013 123.752 682.443 123.752ZM722.972 56.4743V123H702.112V56.4743H722.972ZM760.112 56.4743C767.066 56.4743 773.142 57.8838 778.341 60.7027C783.603 63.5215 787.644 67.4367 790.462 72.448C793.281 77.4594 794.691 83.1598 794.691 89.5492C794.691 95.8761 793.281 101.576 790.462 106.65C787.644 111.724 783.603 115.734 778.341 118.678C773.142 121.559 767.066 123 760.112 123H732.393V56.4743H760.112ZM758.233 104.395C762.931 104.395 766.658 103.111 769.415 100.543C772.171 97.9746 773.549 94.31 773.549 89.5492C773.549 84.7885 772.171 81.1239 769.415 78.5556C766.658 75.9873 762.931 74.7031 758.233 74.7031H753.253V104.395H758.233Z" fill="#669FE2"/>
</g>
</svg>
