<svg width="325" height="234" viewBox="0 0 325 234" fill="none" xmlns="http://www.w3.org/2000/svg">
<path d="M22.2187 107.389L0.0658765 229.069C-0.381423 231.525 1.50594 233.787 4.00323 233.787H71.3026C73.3537 233.787 75.0728 232.237 75.2835 230.196L86.9555 117.162C87.3574 113.271 89.3684 109.725 92.5018 107.382L121.937 85.3771L135.944 171.088L151.953 170.088L137.278 74.7049L155.9 61.185C159.331 58.6942 163.959 58.636 167.451 61.0398L187.304 74.7049L174.631 170.088L190.639 171.088L202.646 85.3771L232.081 107.382C235.214 109.725 237.225 113.271 237.627 117.162L249.299 230.196C249.51 232.237 251.229 233.787 253.28 233.787H320.58C323.077 233.787 324.964 231.525 324.517 229.069L302.364 107.389C300.697 99.3844 294.76 89.1124 284.355 84.0431L209.649 43.0218H114.933L40.228 84.0431C29.8226 89.1124 23.8862 99.3844 22.2187 107.389Z" fill="#F4D783"/>
<path d="M135.944 171.088C133.943 172.089 133.677 173.089 133.943 178.425C132.609 179.092 133.276 186.096 134.944 185.763C135.055 188.208 136.011 192.9 138.946 192.099L156.288 190.098C158.623 189.431 159.29 181.093 156.622 181.093C156.288 175.757 158.623 169.554 151.953 170.088L135.944 171.088Z" fill="#3E72B0"/>
<path d="M192.64 178.425C192.907 173.089 192.64 172.089 190.639 171.088L174.631 170.088C167.961 169.554 170.296 175.757 169.962 181.093C167.294 181.093 167.961 189.431 170.296 190.098L187.638 192.099C190.573 192.9 191.529 188.208 191.64 185.763C193.307 186.096 193.974 179.092 192.64 178.425Z" fill="#3E72B0"/>
<path d="M199.978 198.436H186.543C186.12 201.602 186.058 204.491 184.918 206.44H199.978V226.45C199.978 230.134 202.964 233.12 206.648 233.12H214.318C218.002 233.12 220.988 230.134 220.988 226.45V206.44H222.99L222.52 216.761C222.413 219.132 224.306 221.114 226.681 221.114C228.907 221.114 230.74 219.363 230.841 217.139L231.327 206.44C233.328 206.44 236.997 205.906 236.997 202.438C236.997 198.969 233.328 198.436 231.327 198.436V187.93C231.327 185.628 229.461 183.762 227.158 183.762C224.856 183.762 222.99 185.628 222.99 187.93V198.436H220.988V178.425C220.988 174.742 218.002 171.755 214.318 171.755H206.648C202.964 171.755 199.978 174.742 199.978 178.425V198.436Z" fill="black"/>
<path d="M169.629 198.436H156.955C157.33 202.562 157.917 204.938 156.756 206.44H169.828C168.667 204.938 169.253 202.562 169.629 198.436Z" fill="black"/>
<path d="M125.606 198.436V178.425C125.606 174.742 122.619 171.755 118.936 171.755H111.265C107.581 171.755 104.595 174.742 104.595 178.425V198.436H102.594V187.93C102.594 185.628 100.727 183.762 98.4249 183.762C96.1225 183.762 94.2561 185.628 94.2561 187.93V198.436C92.255 198.436 88.5865 198.969 88.5865 202.438C88.5865 205.906 92.255 206.44 94.2561 206.44L94.7424 217.139C94.8435 219.363 96.6761 221.114 98.9026 221.114C101.277 221.114 103.171 219.132 103.063 216.761L102.594 206.44H104.595V226.45C104.595 230.134 107.581 233.12 111.265 233.12H118.936C122.619 233.12 125.606 230.134 125.606 226.45V206.44H141.666C140.526 204.491 140.464 201.602 140.041 198.436H125.606Z" fill="black"/>
<path d="M186.637 197.769L187.638 192.099L170.296 190.098L169.629 198.436C169.253 202.562 168.667 204.938 169.828 206.44C170.731 207.609 172.692 208.249 176.632 208.774C181.5 209.423 183.762 208.415 184.918 206.44C186.058 204.491 186.12 201.602 186.543 198.436C186.573 198.215 186.604 197.992 186.637 197.769Z" fill="#F4D783"/>
<path d="M138.946 192.099L139.946 197.769C139.98 197.992 140.011 198.215 140.041 198.436C140.464 201.602 140.526 204.491 141.666 206.44C142.822 208.415 145.084 209.423 149.952 208.774C153.892 208.249 155.853 207.609 156.756 206.44C157.917 204.938 157.33 202.562 156.955 198.436L156.288 190.098L138.946 192.099Z" fill="#F4D783"/>
<path d="M110.598 15.6743C110.598 11.2537 114.181 7.67017 118.602 7.67017H205.314C209.734 7.67017 213.318 11.2537 213.318 15.6743V35.0177C213.318 39.4383 209.734 43.0218 205.314 43.0218H118.602C114.181 43.0218 110.598 39.4383 110.598 35.0177V15.6743Z" fill="#EABE3F"/>
<path d="M145.95 25.346C145.95 32.0161 142.615 35.6847 131.942 35.6847C122.271 35.6847 117.935 32.0161 117.935 25.346C117.935 19.6361 121.27 15.0073 131.942 15.0073C144.282 15.0073 145.95 19.6361 145.95 25.346Z" fill="white"/>
<path d="M206.648 25.346C206.648 32.0161 203.313 35.6847 192.64 35.6847C182.969 35.6847 178.633 32.0161 178.633 25.346C178.633 19.6361 181.968 15.0073 192.64 15.0073C204.98 15.0073 206.648 19.6361 206.648 25.346Z" fill="white"/>
<path d="M139.279 25.346C139.279 29.214 136.144 32.3496 132.276 32.3496C128.408 32.3496 125.272 29.214 125.272 25.346C125.272 21.478 128.408 18.3424 132.276 18.3424C136.144 18.3424 139.279 21.478 139.279 25.346Z" fill="black"/>
<path d="M199.978 25.346C199.978 29.214 196.842 32.3496 192.974 32.3496C189.106 32.3496 185.97 29.214 185.97 25.346C185.97 21.478 189.106 18.3424 192.974 18.3424C196.842 18.3424 199.978 21.478 199.978 25.346Z" fill="black"/>
<path d="M149.952 14.2622C157.289 15.2627 161.958 5.92453 156.955 4.25698C153.62 3.58999 151.953 10.1934 158.623 13.9287C160.957 15.236 166.627 11.2606 166.96 8.92609C168.295 4.59051 163.625 3.25648 162.625 6.25804C161.847 8.59258 164.959 13.2617 168.295 12.9282C169.962 12.7614 174.965 10.9271 175.298 7.59206C175.832 2.25599 171.296 2.92301 171.296 5.25752C171.296 7.92561 173.631 11.5275 177.633 9.92664C181.968 8.19241 184.303 4.25704 180.968 1.25548C179.967 0.355001 176.966 1.92252 178.633 4.59054C179.768 6.40622 181.635 8.92617 186.637 8.59266" stroke="black" stroke-width="2.00104"/>
</svg>
