<svg width="750" height="939" viewBox="0 0 750 939" fill="none" xmlns="http://www.w3.org/2000/svg">
<path d="M406.798 519.713C404.728 516.369 401.782 513.822 397.961 512.07C394.14 510.16 389.523 509.205 384.11 509.205C373.921 509.205 366.04 512.548 360.468 519.235C354.895 525.762 352.109 534.758 352.109 546.221C352.109 559.435 355.214 569.306 361.423 575.834C367.632 582.361 377.185 585.625 390.081 585.625C402.34 585.625 412.211 580.69 419.694 570.819H377.423V533.325H463.635V586.342C456.312 598.919 446.202 609.746 433.306 618.82C420.41 627.736 404.091 632.194 384.349 632.194C366.836 632.194 351.552 628.612 338.497 621.447C325.601 614.124 315.65 603.934 308.645 590.879C301.799 577.824 298.376 562.938 298.376 546.221C298.376 529.504 301.799 514.618 308.645 501.563C315.65 488.507 325.601 478.398 338.497 471.233C351.393 463.91 366.518 460.248 383.871 460.248C406.002 460.248 423.992 465.581 437.843 476.248C451.854 486.915 460.133 501.403 462.68 519.713H406.798Z" fill="black"/>
<path d="M474.81 709.343L421.849 728.619L422.734 755.49L370.446 774.521L370.74 594.482L428.189 573.572L543.916 711.383L491.404 730.496L474.81 709.343ZM449.051 676.276L418.598 637.295L420.326 686.731L449.051 676.276Z" fill="black"/>
<path d="M422.983 709.919V819.058C422.983 839.277 417.65 854.641 406.983 865.149C396.475 875.497 381.669 880.672 362.563 880.672C342.025 880.672 325.706 875.02 313.606 863.716C301.507 852.412 295.457 835.934 295.457 814.281H347.757C347.757 821.127 348.871 825.983 351.1 828.849C353.329 831.556 356.354 832.909 360.175 832.909C363.359 832.909 365.827 831.874 367.579 829.804C369.33 827.735 370.205 824.152 370.205 819.058V709.919H422.983Z" fill="black"/>
<path d="M347.977 630.919V800H294.96V630.919H347.977Z" fill="black"/>
<path d="M51.3307 248.784L0.152191 529.895C-0.881181 535.571 3.4791 540.797 9.24846 540.797H164.727C169.465 540.797 173.437 537.214 173.924 532.501L200.889 271.364C201.817 262.373 206.463 254.181 213.702 248.769L281.705 197.932L314.065 395.946L351.048 393.635L317.147 173.277L360.168 142.042C368.094 136.288 378.786 136.153 386.854 141.707L432.719 173.277L403.441 393.635L440.424 395.946L468.162 197.932L536.165 248.769C543.404 254.181 548.049 262.373 548.978 271.364L575.943 532.501C576.43 537.214 580.401 540.797 585.14 540.797H740.618C746.388 540.797 750.748 535.571 749.714 529.895L698.536 248.784C694.683 230.292 680.969 206.561 656.93 194.85L484.342 100.081H265.525L92.9368 194.85C68.8977 206.561 55.1831 230.292 51.3307 248.784Z" fill="#669FE2"/>
<path d="M314.065 395.946C309.442 398.257 308.826 400.569 309.442 412.897C306.36 414.438 307.901 430.618 311.754 429.847C312.011 435.497 314.219 446.336 321 444.486L361.065 439.863C366.458 438.322 367.999 419.06 361.835 419.06C361.065 406.733 366.458 392.402 351.048 393.635L314.065 395.946Z" fill="#F4D783"/>
<path d="M445.047 412.897C445.664 400.569 445.047 398.257 440.424 395.946L403.441 393.635C388.032 392.402 393.425 406.733 392.654 419.06C386.491 419.06 388.032 438.322 393.425 439.863L433.49 444.486C440.27 446.336 442.479 435.497 442.736 429.847C446.588 430.618 448.129 414.438 445.047 412.897Z" fill="#F4D783"/>
<path d="M431.178 457.585L433.49 444.486L393.425 439.863L391.884 459.126C391.017 468.659 389.663 474.146 392.345 477.617C394.431 480.317 398.961 481.797 408.064 483.01C419.309 484.51 424.536 482.18 427.206 477.617C429.84 473.115 429.984 466.44 430.961 459.126C431.029 458.615 431.101 458.101 431.178 457.585Z" fill="#669FE2"/>
<path d="M321 444.486L323.311 457.585C323.388 458.101 323.461 458.615 323.529 459.126C324.506 466.44 324.65 473.115 327.284 477.617C329.953 482.18 335.181 484.51 346.425 483.01C355.529 481.797 360.058 480.317 362.145 477.617C364.826 474.146 363.472 468.659 362.606 459.126L361.065 439.863L321 444.486Z" fill="#669FE2"/>
<path d="M255.509 36.9012C255.509 26.6886 263.788 18.4096 274 18.4096H474.326C484.538 18.4096 492.817 26.6886 492.817 36.9012V81.5891C492.817 91.8018 484.538 100.081 474.326 100.081H274C263.788 100.081 255.509 91.8018 255.509 81.5891V36.9012Z" fill="#3E72B0"/>
<path d="M337.18 59.2452C337.18 74.6548 329.475 83.1301 304.819 83.1301C282.475 83.1301 272.459 74.6548 272.459 59.2452C272.459 46.0539 280.164 35.3602 304.819 35.3602C333.327 35.3602 337.18 46.0539 337.18 59.2452Z" fill="white"/>
<path d="M477.407 59.2452C477.407 74.6548 469.703 83.1301 445.047 83.1301C422.703 83.1301 412.687 74.6548 412.687 59.2452C412.687 46.0539 420.392 35.3602 445.047 35.3602C473.555 35.3602 477.407 46.0539 477.407 59.2452Z" fill="white"/>
<path d="M321.77 59.2452C321.77 68.1812 314.526 75.4253 305.59 75.4253C296.654 75.4253 289.41 68.1812 289.41 59.2452C289.41 50.3091 296.654 43.065 305.59 43.065C314.526 43.065 321.77 50.3091 321.77 59.2452Z" fill="black"/>
<path d="M461.998 59.2452C461.998 68.1812 454.754 75.4253 445.818 75.4253C436.882 75.4253 429.638 68.1812 429.638 59.2452C429.638 50.3091 436.882 43.065 445.818 43.065C454.754 43.065 461.998 50.3091 461.998 59.2452Z" fill="black"/>
<path d="M346.425 33.6388C363.376 35.9502 374.163 14.3767 362.605 10.5243C354.901 8.98337 351.048 24.2389 366.458 32.8683C371.851 35.8886 384.949 26.7045 385.72 21.3111C388.802 11.2948 378.015 8.21289 375.704 15.1472C373.906 20.5406 381.097 31.3274 388.802 30.5569C392.654 30.1716 404.211 25.934 404.982 18.2292C406.215 5.90151 395.736 7.44249 395.736 12.8358C395.736 18.9997 401.13 27.3209 410.375 23.6226C420.392 19.6161 425.785 10.5244 418.08 3.59008C415.769 1.50975 408.834 5.1311 412.687 11.2949C415.308 15.4896 419.621 21.3113 431.178 20.5408" stroke="black" stroke-width="4.62289"/>
</svg>
