<svg width="152" height="135" viewBox="0 0 152 135" fill="none" xmlns="http://www.w3.org/2000/svg">
<circle cx="87.9718" cy="22.9718" r="22.9718" fill="#EABE3F"/>
<path d="M91.8767 18.6074C91.1195 18.5097 90.0272 18.4645 88.8906 18.6229M88.8906 18.6229C86.4644 18.9611 83.8366 20.227 83.8368 23.8907C83.837 28.0255 87.5121 30.2464 89.8093 29.8635M88.8906 18.6229V15.6209M88.8906 18.6229V23.2016M105.89 22.9719C105.89 32.8677 97.8676 40.8899 87.9717 40.8899C78.0759 40.8899 70.0537 32.8677 70.0537 22.9719C70.0537 13.076 78.0759 5.05383 87.9717 5.05383C97.8676 5.05383 105.89 13.076 105.89 22.9719Z" stroke="#DBA710" stroke-width="5" stroke-linecap="round"/>
<circle cx="98.9718" cy="30.9718" r="22.9718" fill="#FFD355"/>
<path d="M102.877 26.6074C102.119 26.5097 101.027 26.4645 99.8906 26.6229M99.8906 26.6229C97.4644 26.9611 94.8366 28.227 94.8368 31.8907C94.837 36.0255 98.5121 38.2464 100.809 37.8635M99.8906 26.6229V23.6209M99.8906 26.6229V31.2016M116.89 30.9719C116.89 40.8677 108.868 48.8899 98.9717 48.8899C89.0759 48.8899 81.0537 40.8677 81.0537 30.9719C81.0537 21.076 89.0759 13.0538 98.9717 13.0538C108.868 13.0538 116.89 21.076 116.89 30.9719Z" stroke="#DBA710" stroke-width="5" stroke-linecap="round"/>
<path d="M112 61.5L65.1304 35.9917C64.9762 40.6396 67.3506 50.8651 76.2313 52.7243C76.2313 55.3271 75.6146 56.2877 75.3062 56.4427C70.9892 55.2032 62.1702 49.0059 61.4301 35.9917C61.1483 35.9917 60.8392 35.9879 60.5051 35.9847C53.1045 49.4707 25.9074 72.1527 22.5771 92.2319C19.8016 108.965 26.0924 132.018 62.3552 134.993L89.6448 135C125.908 132.025 132.5 107.5 129.676 92.2319C127.201 78.8512 117 68.5 112 61.5Z" fill="#F0F0F0"/>
<path d="M83.1693 10.8929C68.7382 -2.86506 51.8711 -0.727004 45.2414 2.06177C46.7215 5.40841 56.6506 23.9071 61.4301 32.7381L66.5 34L108.5 56.4427L125.5 41.5C114.399 42.9875 84.7111 11.5127 83.1693 10.8929Z" fill="#F0F0F0"/>
<path d="M108.5 56.4427L66.5 34L61.4301 32.7381C46.629 32.7381 40.4618 39.2452 39.2284 42.4988L41.5411 43.8932C48.7199 35.9922 56.4515 35.9459 60.5051 35.9847C60.8392 35.9879 61.1483 35.9917 61.4301 35.9917C62.1702 49.0059 70.9892 55.2032 75.3062 56.4427C75.6146 56.2877 76.2313 55.3271 76.2313 52.7243C67.3506 50.8651 64.9762 40.6396 65.1304 35.9917L112 61.5L108.5 56.4427Z" fill="#A3C5EE"/>
</svg>
