<svg width="152" height="135" viewBox="0 0 152 135" fill="none" xmlns="http://www.w3.org/2000/svg">
<path d="M91.4949 35.9917H65.1304C64.9762 40.6396 67.3506 50.8651 76.2313 52.7243C76.2313 55.3271 75.6146 56.2877 75.3062 56.4427C70.9892 55.2032 62.1702 49.0059 61.4301 35.9917C61.1483 35.9917 60.8392 35.9879 60.5051 35.9847C53.1045 49.4707 25.9074 72.1527 22.5771 92.2319C19.8016 108.965 26.0924 132.018 62.3552 134.993L89.6448 135C125.908 132.025 132.198 108.971 129.423 92.2388C126.093 72.1597 98.8955 49.4777 91.4949 35.9917Z" fill="#F0F0F0"/>
<path d="M83.1693 10.8929C68.7382 -2.86506 51.8711 -0.727003 45.2414 2.06177C46.7215 5.40841 56.6506 23.9071 61.4301 32.7381H91.4949L101.671 10.8929C90.5699 12.3803 84.7111 11.5127 83.1693 10.8929Z" fill="#F0F0F0"/>
<path d="M91.4949 32.7381H61.4301C46.629 32.7381 40.4618 39.2452 39.2284 42.4988L41.5411 43.8932C48.7199 35.9922 56.4515 35.9459 60.5051 35.9847C60.8392 35.9879 61.1483 35.9917 61.4301 35.9917C62.1702 49.0059 70.9892 55.2032 75.3062 56.4427C75.6146 56.2877 76.2313 55.3271 76.2313 52.7243C67.3506 50.8651 64.9762 40.6396 65.1304 35.9917H91.4949V32.7381Z" fill="#A3C5EE"/>
</svg>
