<svg width="114" height="55" viewBox="0 0 114 55" fill="none" xmlns="http://www.w3.org/2000/svg">
<path d="M4.20721 21.1451L0.012474 44.1858C-0.0722241 44.651 0.285157 45.0793 0.75803 45.0793H13.5015C13.8899 45.0793 14.2154 44.7857 14.2553 44.3994L16.4654 22.9958C16.5415 22.259 16.9223 21.5875 17.5156 21.1439L23.0893 16.9772L25.9943 14.9563L29.5204 12.3963C30.17 11.9246 31.0464 11.9136 31.7076 12.3688L35.4669 14.9563L38.3718 16.9772L43.9456 21.1439C44.5389 21.5875 44.9197 22.259 44.9958 22.9958L47.2059 44.3994C47.2458 44.7857 47.5713 45.0793 47.9597 45.0793H60.7031C61.176 45.0793 61.5334 44.651 61.4487 44.1858L57.254 21.1451C56.9382 19.6295 55.8141 17.6844 53.8438 16.7246L39.698 8.95699H21.7632L7.61736 16.7246C5.64705 17.6844 4.52296 19.6295 4.20721 21.1451Z" fill="#669FE2"/>
<path d="M20.9422 3.77862C20.9422 2.94157 21.6208 2.263 22.4578 2.263H38.8771C39.7141 2.263 40.3927 2.94157 40.3927 3.77862V7.44137C40.3927 8.27843 39.7141 8.95699 38.8771 8.95699H22.4578C21.6208 8.95699 20.9422 8.27843 20.9422 7.44137V3.77862Z" fill="#3E72B0"/>
<path d="M27.6362 5.61C27.6362 6.87301 27.0047 7.56767 24.9839 7.56767C23.1525 7.56767 22.3315 6.87301 22.3315 5.61C22.3315 4.5288 22.963 3.65232 24.9839 3.65232C27.3204 3.65232 27.6362 4.5288 27.6362 5.61Z" fill="white"/>
<path d="M39.1297 5.61C39.1297 6.87301 38.4981 7.56767 36.4773 7.56767C34.6459 7.56767 33.825 6.87301 33.825 5.61C33.825 4.5288 34.4565 3.65232 36.4773 3.65232C38.8139 3.65232 39.1297 4.5288 39.1297 5.61Z" fill="white"/>
<path d="M26.3732 5.61C26.3732 6.34242 25.7794 6.93617 25.047 6.93617C24.3146 6.93617 23.7208 6.34242 23.7208 5.61C23.7208 4.87757 24.3146 4.28383 25.047 4.28383C25.7794 4.28383 26.3732 4.87757 26.3732 5.61Z" fill="black"/>
<path d="M37.8666 5.61C37.8666 6.34242 37.2729 6.93617 36.5405 6.93617C35.808 6.93617 35.2143 6.34242 35.2143 5.61C35.2143 4.87757 35.808 4.28383 36.5405 4.28383C37.2729 4.28383 37.8666 4.87757 37.8666 5.61Z" fill="black"/>
<path d="M28.394 3.51124C29.7834 3.70069 30.6675 1.93247 29.7202 1.61671C29.0887 1.49041 28.7729 2.7408 30.036 3.44809C30.478 3.69564 31.5516 2.94288 31.6147 2.50083C31.8673 1.67987 30.9832 1.42726 30.7938 1.99562C30.6464 2.43768 31.2358 3.32179 31.8673 3.25864C32.1831 3.22706 33.1304 2.87973 33.1935 2.24822C33.2946 1.23782 32.4357 1.36412 32.4357 1.80617C32.4357 2.31138 32.8778 2.99341 33.6356 2.69029C34.4565 2.3619 34.8986 1.61672 34.2671 1.04836C34.0776 0.877855 33.5093 1.17467 33.825 1.67987C34.0399 2.02368 34.3934 2.50084 35.3406 2.43769" stroke="black" stroke-width="0.378905"/>
<path d="M34.7547 28.0253C34.4373 27.5125 33.9855 27.1218 33.3995 26.8532C32.8135 26.5602 32.1053 26.4137 31.2751 26.4137C29.7123 26.4137 28.5036 26.9265 27.649 27.9521C26.7943 28.9532 26.367 30.3329 26.367 32.091C26.367 34.1177 26.8432 35.6316 27.7955 36.6328C28.7478 37.6339 30.2129 38.1345 32.1908 38.1345C34.071 38.1345 35.585 37.3776 36.7326 35.8636H30.2495V30.1131H43.4721V38.2444C42.3488 40.1735 40.7983 41.8339 38.8204 43.2257C36.8425 44.5932 34.3396 45.2769 31.3117 45.2769C28.6257 45.2769 26.2816 44.7275 24.2793 43.6286C22.3014 42.5054 20.7752 40.9426 19.7008 38.9403C18.6508 36.938 18.1258 34.6549 18.1258 32.091C18.1258 29.5271 18.6508 27.2439 19.7008 25.2416C20.7752 23.2393 22.3014 21.6888 24.2793 20.5899C26.2571 19.4667 28.5769 18.9051 31.2385 18.9051C34.6326 18.9051 37.3919 19.7231 39.5163 21.3591C41.6651 22.9951 42.9349 25.2172 43.3256 28.0253H34.7547Z" fill="#F4D783"/>
<path d="M26.2077 32.8912H17.998C17.998 37.817 20.3978 43.9426 28.6705 45.1425C36.9433 46.3424 41.4902 41.985 43.3216 38.3222V33.0175L30.0599 32.8912V35.9225H36.5013C34.6699 38.5748 27.0286 39.9641 26.2077 32.8912Z" fill="black"/>
<path d="M71.1626 45.293C69.7464 45.293 68.6109 44.9145 67.7563 44.1576C66.9016 43.4006 66.4743 42.4483 66.4743 41.3006C66.4743 40.1285 66.9016 39.164 67.7563 38.407C68.6109 37.6257 69.7464 37.235 71.1626 37.235C72.5545 37.235 73.6777 37.6257 74.5324 38.407C75.387 39.164 75.8143 40.1285 75.8143 41.3006C75.8143 42.4483 75.387 43.4006 74.5324 44.1576C73.6777 44.9145 72.5545 45.293 71.1626 45.293ZM82.9324 22.6938C81.5161 22.6938 80.3807 22.3154 79.526 21.5584C78.6714 20.8014 78.244 19.8491 78.244 18.7014C78.244 17.5294 78.6714 16.5648 79.526 15.8079C80.3807 15.0265 81.5161 14.6358 82.9324 14.6358C84.3242 14.6358 85.4475 15.0265 86.3021 15.8079C87.1567 16.5648 87.5841 17.5294 87.5841 18.7014C87.5841 19.8491 87.1567 20.8014 86.3021 21.5584C85.4475 22.3154 84.3242 22.6938 82.9324 22.6938ZM86.9614 24.3421V45H78.8301V24.3421H86.9614ZM89.5351 34.671C89.5351 32.4978 89.9013 30.6176 90.6339 29.0304C91.3908 27.4188 92.4164 26.1979 93.7106 25.3676C95.0048 24.513 96.4577 24.0857 98.0693 24.0857C99.4123 24.0857 100.56 24.3665 101.512 24.9281C102.489 25.4653 103.234 26.2101 103.747 27.1624V17.8956H111.878V45H103.747V42.1797C103.234 43.132 102.489 43.889 101.512 44.4506C100.56 44.9878 99.4123 45.2564 98.0693 45.2564C96.4577 45.2564 95.0048 44.8413 93.7106 44.0111C92.4164 43.1564 91.3908 41.9355 90.6339 40.3483C89.9013 38.7367 89.5351 36.8443 89.5351 34.671ZM103.783 34.671C103.783 33.5722 103.502 32.7176 102.941 32.1071C102.379 31.4967 101.659 31.1914 100.78 31.1914C99.9006 31.1914 99.1803 31.4967 98.6187 32.1071C98.0571 32.7176 97.7762 33.5722 97.7762 34.671C97.7762 35.7699 98.0571 36.6245 98.6187 37.235C99.1803 37.8454 99.9006 38.1507 100.78 38.1507C101.659 38.1507 102.379 37.8454 102.941 37.235C103.502 36.6245 103.783 35.7699 103.783 34.671Z" fill="black"/>
</svg>
