<svg width="149" height="46" viewBox="0 0 149 46" fill="none" xmlns="http://www.w3.org/2000/svg">
<path d="M55.672 29.28C55.672 27.904 55.928 26.696 56.44 25.656C56.968 24.616 57.68 23.816 58.576 23.256C59.472 22.696 60.472 22.416 61.576 22.416C62.52 22.416 63.344 22.608 64.048 22.992C64.768 23.376 65.32 23.88 65.704 24.504V22.608H69.808V36H65.704V34.104C65.304 34.728 64.744 35.232 64.024 35.616C63.32 36 62.496 36.192 61.552 36.192C60.464 36.192 59.472 35.912 58.576 35.352C57.68 34.776 56.968 33.968 56.44 32.928C55.928 31.872 55.672 30.656 55.672 29.28ZM65.704 29.304C65.704 28.28 65.416 27.472 64.84 26.88C64.28 26.288 63.592 25.992 62.776 25.992C61.96 25.992 61.264 26.288 60.688 26.88C60.128 27.456 59.848 28.256 59.848 29.28C59.848 30.304 60.128 31.12 60.688 31.728C61.264 32.32 61.96 32.616 62.776 32.616C63.592 32.616 64.28 32.32 64.84 31.728C65.416 31.136 65.704 30.328 65.704 29.304ZM74.8171 21.216C74.0971 21.216 73.5051 21.008 73.0411 20.592C72.5931 20.16 72.3691 19.632 72.3691 19.008C72.3691 18.368 72.5931 17.84 73.0411 17.424C73.5051 16.992 74.0971 16.776 74.8171 16.776C75.5211 16.776 76.0971 16.992 76.5451 17.424C77.0091 17.84 77.2411 18.368 77.2411 19.008C77.2411 19.632 77.0091 20.16 76.5451 20.592C76.0971 21.008 75.5211 21.216 74.8171 21.216ZM76.8811 37.728C76.8811 39.376 76.4651 40.56 75.6331 41.28C74.8011 42.016 73.6411 42.384 72.1531 42.384H70.5451V38.904H71.5291C71.9771 38.904 72.2971 38.816 72.4891 38.64C72.6811 38.464 72.7771 38.176 72.7771 37.776V22.608H76.8811V37.728ZM81.8958 21.216C81.1758 21.216 80.5838 21.008 80.1198 20.592C79.6718 20.16 79.4478 19.632 79.4478 19.008C79.4478 18.368 79.6718 17.84 80.1198 17.424C80.5838 16.992 81.1758 16.776 81.8958 16.776C82.5998 16.776 83.1758 16.992 83.6238 17.424C84.0878 17.84 84.3198 18.368 84.3198 19.008C84.3198 19.632 84.0878 20.16 83.6238 20.592C83.1758 21.008 82.5998 21.216 81.8958 21.216ZM83.9358 22.608V36H79.8318V22.608H83.9358ZM86.0939 29.28C86.0939 27.904 86.3499 26.696 86.8619 25.656C87.3899 24.616 88.1019 23.816 88.9979 23.256C89.8939 22.696 90.8939 22.416 91.9979 22.416C92.9419 22.416 93.7659 22.608 94.4699 22.992C95.1899 23.376 95.7419 23.88 96.1259 24.504V22.608H100.23V36H96.1259V34.104C95.7259 34.728 95.1659 35.232 94.4459 35.616C93.7419 36 92.9179 36.192 91.9739 36.192C90.8859 36.192 89.8939 35.912 88.9979 35.352C88.1019 34.776 87.3899 33.968 86.8619 32.928C86.3499 31.872 86.0939 30.656 86.0939 29.28ZM96.1259 29.304C96.1259 28.28 95.8379 27.472 95.2619 26.88C94.7019 26.288 94.0139 25.992 93.1979 25.992C92.3819 25.992 91.6859 26.288 91.1099 26.88C90.5499 27.456 90.2699 28.256 90.2699 29.28C90.2699 30.304 90.5499 31.12 91.1099 31.728C91.6859 32.32 92.3819 32.616 93.1979 32.616C94.0139 32.616 94.7019 32.32 95.2619 31.728C95.8379 31.136 96.1259 30.328 96.1259 29.304ZM111.359 22.464C112.927 22.464 114.175 22.976 115.103 24C116.047 25.008 116.519 26.4 116.519 28.176V36H112.439V28.728C112.439 27.832 112.207 27.136 111.743 26.64C111.279 26.144 110.655 25.896 109.871 25.896C109.087 25.896 108.463 26.144 107.999 26.64C107.535 27.136 107.303 27.832 107.303 28.728V36H103.199V22.608H107.303V24.384C107.719 23.792 108.279 23.328 108.983 22.992C109.687 22.64 110.479 22.464 111.359 22.464Z" fill="#669FE2"/>
<path d="M121.291 36.192C120.571 36.192 119.979 35.984 119.515 35.568C119.067 35.136 118.843 34.608 118.843 33.984C118.843 33.344 119.067 32.808 119.515 32.376C119.979 31.944 120.571 31.728 121.291 31.728C121.995 31.728 122.571 31.944 123.019 32.376C123.483 32.808 123.715 33.344 123.715 33.984C123.715 34.608 123.483 35.136 123.019 35.568C122.571 35.984 121.995 36.192 121.291 36.192ZM128.208 21.216C127.488 21.216 126.896 21.008 126.432 20.592C125.984 20.16 125.76 19.632 125.76 19.008C125.76 18.368 125.984 17.84 126.432 17.424C126.896 16.992 127.488 16.776 128.208 16.776C128.912 16.776 129.488 16.992 129.936 17.424C130.4 17.84 130.632 18.368 130.632 19.008C130.632 19.632 130.4 20.16 129.936 20.592C129.488 21.008 128.912 21.216 128.208 21.216ZM130.248 22.608V36H126.144V22.608H130.248ZM132.406 29.28C132.406 27.904 132.662 26.696 133.174 25.656C133.702 24.616 134.414 23.816 135.31 23.256C136.206 22.696 137.206 22.416 138.31 22.416C139.19 22.416 139.99 22.6 140.71 22.968C141.446 23.336 142.022 23.832 142.438 24.456V18.24H146.542V36H142.438V34.08C142.054 34.72 141.502 35.232 140.782 35.616C140.078 36 139.254 36.192 138.31 36.192C137.206 36.192 136.206 35.912 135.31 35.352C134.414 34.776 133.702 33.968 133.174 32.928C132.662 31.872 132.406 30.656 132.406 29.28ZM142.438 29.304C142.438 28.28 142.15 27.472 141.574 26.88C141.014 26.288 140.326 25.992 139.51 25.992C138.694 25.992 137.998 26.288 137.422 26.88C136.862 27.456 136.582 28.256 136.582 29.28C136.582 30.304 136.862 31.12 137.422 31.728C137.998 32.32 138.694 32.616 139.51 32.616C140.326 32.616 141.014 32.32 141.574 31.728C142.15 31.136 142.438 30.328 142.438 29.304Z" fill="black"/>
<path d="M3.56697 18.0795L0.0105757 37.6139C-0.0612332 38.0083 0.241763 38.3714 0.642675 38.3714H11.4468C11.7761 38.3714 12.0521 38.1225 12.0859 37.7949L13.9597 19.6486C14.0243 19.0238 14.3471 18.4545 14.8501 18.0785L19.5756 14.5458L22.0385 12.8325L25.028 10.662C25.5788 10.2621 26.3218 10.2528 26.8824 10.6387L30.0696 12.8325L32.5325 14.5458L37.258 18.0785C37.7611 18.4545 38.0839 19.0238 38.1484 19.6486L40.0222 37.7949C40.056 38.1225 40.332 38.3714 40.6613 38.3714H51.4655C51.8664 38.3714 52.1694 38.0083 52.0976 37.6139L48.5412 18.0795C48.2735 16.7945 47.3205 15.1454 45.65 14.3316L33.6569 7.74612H18.4513L6.45817 14.3316C4.78769 15.1454 3.83467 16.7945 3.56697 18.0795Z" fill="#669FE2"/>
<path d="M17.7553 3.35578C17.7553 2.6461 18.3306 2.0708 19.0402 2.0708H32.9608C33.6705 2.0708 34.2458 2.6461 34.2458 3.35578V6.46114C34.2458 7.17081 33.6705 7.74612 32.9608 7.74612H19.0402C18.3306 7.74612 17.7553 7.17081 17.7553 6.46114V3.35578Z" fill="#3E72B0"/>
<path d="M23.4306 4.90846C23.4306 5.97927 22.8952 6.56822 21.1819 6.56822C19.6292 6.56822 18.9332 5.97927 18.9332 4.90846C18.9332 3.9918 19.4686 3.2487 21.1819 3.2487C23.1629 3.2487 23.4306 3.9918 23.4306 4.90846Z" fill="white"/>
<path d="M33.175 4.90846C33.175 5.97927 32.6396 6.56822 30.9263 6.56822C29.3736 6.56822 28.6776 5.97927 28.6776 4.90846C28.6776 3.9918 29.213 3.2487 30.9263 3.2487C32.9073 3.2487 33.175 3.9918 33.175 4.90846Z" fill="white"/>
<path d="M22.3598 4.90846C22.3598 5.52942 21.8564 6.03281 21.2354 6.03281C20.6144 6.03281 20.1111 5.52942 20.1111 4.90846C20.1111 4.28749 20.6144 3.7841 21.2354 3.7841C21.8564 3.7841 22.3598 4.28749 22.3598 4.90846Z" fill="black"/>
<path d="M32.1042 4.90846C32.1042 5.52942 31.6008 6.03281 30.9798 6.03281C30.3589 6.03281 29.8555 5.52942 29.8555 4.90846C29.8555 4.28749 30.3589 3.7841 30.9798 3.7841C31.6008 3.7841 32.1042 4.28749 32.1042 4.90846Z" fill="black"/>
<path d="M24.073 3.12908C25.2509 3.28971 26.0005 1.79057 25.1974 1.52286C24.6619 1.41578 24.3942 2.47589 25.4651 3.07554C25.8398 3.28542 26.75 2.64722 26.8036 2.27244C27.0177 1.57641 26.2682 1.36224 26.1075 1.84411C25.9826 2.21889 26.4823 2.96847 27.0177 2.91492C27.2854 2.88815 28.0886 2.59368 28.1421 2.05827C28.2278 1.20163 27.4996 1.30871 27.4996 1.68349C27.4996 2.11182 27.8744 2.69006 28.5169 2.43306C29.2129 2.15465 29.5877 1.52287 29.0523 1.041C28.8917 0.896443 28.4098 1.14809 28.6775 1.57641C28.8597 1.8679 29.1594 2.27245 29.9625 2.21891" stroke="black" stroke-width="0.321244"/>
<path d="M29.5965 23.2389C29.3273 22.8041 28.9443 22.4729 28.4475 22.2452C27.9506 21.9967 27.3503 21.8725 26.6464 21.8725C25.3214 21.8725 24.2966 22.3073 23.5721 23.1768C22.8475 24.0256 22.4852 25.1953 22.4852 26.6858C22.4852 28.4041 22.8889 29.6877 23.6963 30.5365C24.5037 31.3853 25.7458 31.8097 27.4227 31.8097C29.0168 31.8097 30.3003 31.1679 31.2734 29.8844H25.7769V25.0089H36.9872V31.9028C36.0349 33.5383 34.7203 34.9461 33.0434 36.1261C31.3665 37.2855 29.2445 37.8651 26.6774 37.8651C24.4002 37.8651 22.4127 37.3993 20.7151 36.4677C19.0382 35.5154 17.7443 34.1905 16.8334 32.4929C15.9432 30.7953 15.4981 28.8596 15.4981 26.6858C15.4981 24.5121 15.9432 22.5764 16.8334 20.8788C17.7443 19.1812 19.0382 17.8666 20.7151 16.935C22.392 15.9827 24.3588 15.5065 26.6153 15.5065C29.493 15.5065 31.8323 16.2001 33.6334 17.5871C35.4552 18.9742 36.5318 20.8581 36.863 23.2389H29.5965Z" fill="#F4D783"/>
<path d="M22.2193 28.0381H15.259C15.259 32.2142 17.2936 37.4077 24.3074 38.425C31.3212 39.4422 35.1762 35.7479 36.7289 32.6426V28.1451L25.4853 28.0381V30.608H30.9465C29.3938 32.8567 22.9153 34.0346 22.2193 28.0381Z" fill="black"/>
</svg>
