<svg width="152" height="135" viewBox="0 0 152 135" fill="none" xmlns="http://www.w3.org/2000/svg">
<rect x="14" width="124.038" height="135" rx="5.76928" fill="#F0F0F0"/>
<line x1="28.4233" y1="34.0383" x2="123.616" y2="34.0383" stroke="#F4D783" stroke-width="5.76928"/>
<line x1="28.4233" y1="54.231" x2="123.616" y2="54.231" stroke="#F4D783" stroke-width="5.76928"/>
<line x1="28.4233" y1="74.4237" x2="123.616" y2="74.4237" stroke="#F4D783" stroke-width="5.76928"/>
<line x1="28.4233" y1="94.6162" x2="123.616" y2="94.6162" stroke="#F4D783" stroke-width="5.76928"/>
<line x1="28.4233" y1="114.809" x2="123.616" y2="114.809" stroke="#F4D783" stroke-width="5.76928"/>
<path d="M106 67.5C106 83.7924 92.7924 97 76.5 97C60.2076 97 47 83.7924 47 67.5C47 51.2076 60.2076 38 76.5 38C92.7924 38 106 51.2076 106 67.5ZM73.0878 83.12L94.9748 61.2329C95.7181 60.4897 95.7181 59.2846 94.9748 58.5414L92.2833 55.8499C91.5401 55.1066 90.335 55.1066 89.5917 55.8499L71.7419 73.6995L63.4083 65.3659C62.6651 64.6227 61.46 64.6227 60.7167 65.3659L58.0251 68.0574C57.2819 68.8006 57.2819 70.0057 58.0251 70.7489L70.3961 83.1199C71.1394 83.8632 72.3444 83.8632 73.0878 83.12Z" fill="#DBA710"/>
<path d="M73.0878 83.12L94.9748 61.2329C95.7181 60.4897 95.7181 59.2846 94.9748 58.5414L92.2833 55.8499C91.5401 55.1066 90.335 55.1066 89.5917 55.8499L71.7419 73.6995L63.4083 65.3659C62.6651 64.6227 61.46 64.6227 60.7167 65.3659L58.0251 68.0574C57.2819 68.8006 57.2819 70.0057 58.0251 70.7489L70.3961 83.1199C71.1394 83.8632 72.3444 83.8632 73.0878 83.12Z" fill="#F0F0F0"/>
</svg>
